<svg xmlns="http://www.w3.org/2000/svg" viewBox="0 0 327 86.65"><defs><style>.cls-1{fill:#fff;}.cls-2{fill:#ffd100;}</style></defs><title>Asset 1</title><g id="Layer_2" data-name="Layer 2"><g id="Layer_1-2" data-name="Layer 1"><rect x="2.24" y="2.02" width="322.51" height="82.61"/><path class="cls-1" d="M327,86.65H0V0H327Zm-322.51-4h318V4H4.49Z"/><path class="cls-2" d="M34.51,16.5H40L32,46.4v23H26.52v-23l-8-29.9H24l5.2,24h.16Z"/><path class="cls-2" d="M46.54,16.5H56.68c5.19,0,8.4.81,8.4,6.09V36c0,4.1-1.73,5.57-5.93,5.71v.15c3.79.15,6.18,1.25,6.18,4.91V63.33c0,5.28-3.21,6.09-8.65,6.09H46.54ZM55.6,39.88c2.56,0,4-.66,4-3.81V24.2c0-3.08-1.81-3.59-4.61-3.59H52V39.88Zm-.33,25.43c2.81,0,4.62-.51,4.62-3.59V47.21c0-2.57-1.73-3.23-4.29-3.23H52V65.31Z"/><path class="cls-1" d="M88.23,16.5h5.44V69.42H88.23V44H80.07V69.42H74.64V16.5h5.43V39.88h8.16Z"/><path class="cls-1" d="M117.81,54.76h-9.56L106,69.42h-5.44l8.73-52.92h7.42l8.74,52.92H120Zm-4.7-34.59H113l-4.12,30.48h8.4Z"/><path class="cls-1" d="M143.11,23.54c0-2.27-.91-3.37-3.05-3.37S137,21.27,137,23.54V62.38c0,2.27.9,3.37,3.05,3.37s3.05-1.1,3.05-3.37V55h5.43v7.55c0,4.47-2.8,7.33-8.48,7.33s-8.49-2.86-8.49-7.33V23.39c0-4.47,2.8-7.33,8.49-7.33s8.48,2.86,8.48,7.33v7h-5.43Z"/><path class="cls-1" d="M168.32,16.5h5.44l-7.83,24.19,8.57,28.73h-5.44l-7.34-26.53h-.16V69.42h-5.44V16.5h5.44V39.22h.16Z"/><path class="cls-1" d="M197.65,54.76h-9.56l-2.22,14.66h-5.44l8.73-52.92h7.42l8.73,52.92h-5.43ZM193,20.17h-.16l-4.12,30.48h8.4Z"/><path class="cls-1" d="M213.63,20.61h-6.1V16.5h17.64v4.11h-6.1V69.42h-5.44Z"/><path class="cls-1" d="M245.6,16.5H251V69.42H245.6V44h-8.16V69.42H232V16.5h5.43V39.88h8.16Z"/><path class="cls-1" d="M260.26,25c0-5.2,2.23-8.94,9.56-8.94s9.56,3.74,9.56,8.94V60.91c0,5.21-2.22,9-9.56,9s-9.56-3.74-9.56-9Zm5.44,35.77c0,2.93.66,5,4.12,5s4.12-2,4.12-5V25.15c0-2.93-.65-5-4.12-5s-4.12,2-4.12,5Z"/><path class="cls-1" d="M303.61,16.5h4.78V69.42h-7.75l-6.84-47h-.17V69.42h-4.78V16.5h7.92l6.67,45.29h.17Z"/></g></g></svg>